<mxfile host="app.diagrams.net" modified="2023-12-08T17:12:33.591Z" agent="Mozilla/5.0 (Macintosh; Intel Mac OS X 10_15_7) AppleWebKit/537.36 (KHTML, like Gecko) Chrome/119.0.0.0 Safari/537.36" etag="tnYJgV5E2r09GgAnU3BA" version="22.1.6" type="device">
  <diagram name="Side-1" id="_kynnS5xHy-yXZrAG_Ny">
    <mxGraphModel dx="3585" dy="2405" grid="0" gridSize="10" guides="1" tooltips="1" connect="1" arrows="1" fold="1" page="0" pageScale="1" pageWidth="827" pageHeight="1169" background="#7EA6E0" math="0" shadow="0">
      <root>
        <mxCell id="0" />
        <mxCell id="1" parent="0" />
        <mxCell id="GoVWbZMdBhOil8Ci3U0w-1" value="" style="rounded=0;whiteSpace=wrap;html=1;fontSize=16;" vertex="1" parent="1">
          <mxGeometry y="200" width="160" height="210" as="geometry" />
        </mxCell>
        <mxCell id="GoVWbZMdBhOil8Ci3U0w-2" value="Medlem" style="text;html=1;align=center;verticalAlign=middle;resizable=0;points=[];autosize=1;strokeColor=none;fillColor=none;fontSize=16;" vertex="1" parent="1">
          <mxGeometry x="40" y="200" width="80" height="30" as="geometry" />
        </mxCell>
        <mxCell id="GoVWbZMdBhOil8Ci3U0w-3" value="" style="endArrow=none;html=1;rounded=0;fontSize=12;startSize=8;endSize=8;curved=1;exitX=0;exitY=0.15;exitDx=0;exitDy=0;exitPerimeter=0;entryX=0.992;entryY=0.15;entryDx=0;entryDy=0;entryPerimeter=0;" edge="1" parent="1" source="GoVWbZMdBhOil8Ci3U0w-1" target="GoVWbZMdBhOil8Ci3U0w-1">
          <mxGeometry width="50" height="50" relative="1" as="geometry">
            <mxPoint x="120" y="230" as="sourcePoint" />
            <mxPoint x="170" y="180" as="targetPoint" />
          </mxGeometry>
        </mxCell>
        <mxCell id="GoVWbZMdBhOil8Ci3U0w-4" value="&lt;div style=&quot;text-align: left;&quot;&gt;&lt;span style=&quot;font-size: 10px; background-color: initial;&quot;&gt;- name : String&lt;/span&gt;&lt;/div&gt;&lt;font style=&quot;font-size: 10px;&quot;&gt;&lt;div style=&quot;text-align: left;&quot;&gt;&lt;span style=&quot;background-color: initial;&quot;&gt;- age : int&lt;/span&gt;&lt;/div&gt;&lt;div style=&quot;text-align: left;&quot;&gt;&lt;span style=&quot;background-color: initial;&quot;&gt;- medlemID : int&lt;/span&gt;&lt;/div&gt;&lt;div style=&quot;text-align: left;&quot;&gt;&lt;span style=&quot;background-color: initial;&quot;&gt;- konkurrenceSvømmer : bool&lt;/span&gt;&lt;/div&gt;&lt;div style=&quot;text-align: left;&quot;&gt;&lt;span style=&quot;background-color: initial;&quot;&gt;- aktiv : bool&lt;/span&gt;&lt;/div&gt;&lt;br&gt;&lt;/font&gt;" style="text;html=1;align=center;verticalAlign=middle;resizable=0;points=[];autosize=1;strokeColor=none;fillColor=none;fontSize=16;" vertex="1" parent="1">
          <mxGeometry x="-9" y="220" width="160" height="100" as="geometry" />
        </mxCell>
        <mxCell id="GoVWbZMdBhOil8Ci3U0w-10" value="" style="endArrow=none;html=1;rounded=0;fontSize=12;startSize=8;endSize=8;curved=1;exitX=0;exitY=0.15;exitDx=0;exitDy=0;exitPerimeter=0;entryX=0.992;entryY=0.15;entryDx=0;entryDy=0;entryPerimeter=0;" edge="1" parent="1">
          <mxGeometry width="50" height="50" relative="1" as="geometry">
            <mxPoint x="1" y="299.99999999999994" as="sourcePoint" />
            <mxPoint x="160" y="299.99999999999994" as="targetPoint" />
          </mxGeometry>
        </mxCell>
        <mxCell id="GoVWbZMdBhOil8Ci3U0w-12" value="&lt;font style=&quot;font-size: 10px;&quot;&gt;+ getName (): String&lt;br&gt;+ getAge() : int&lt;br&gt;+ getMedlemID() : int&lt;br&gt;+ isKonkurrenceSvømmer() : bool&lt;br&gt;+ isAktiv() : bool&lt;br&gt;+ toString() : String&lt;br&gt;&lt;/font&gt;" style="text;html=1;align=left;verticalAlign=middle;resizable=0;points=[];autosize=1;strokeColor=none;fillColor=none;fontSize=16;" vertex="1" parent="1">
          <mxGeometry y="290" width="170" height="130" as="geometry" />
        </mxCell>
        <mxCell id="GoVWbZMdBhOil8Ci3U0w-13" value="" style="endArrow=classic;html=1;rounded=0;fontSize=12;startSize=8;endSize=8;curved=1;entryX=0.468;entryY=0.986;entryDx=0;entryDy=0;entryPerimeter=0;" edge="1" parent="1">
          <mxGeometry width="50" height="50" relative="1" as="geometry">
            <mxPoint x="80" y="480" as="sourcePoint" />
            <mxPoint x="79.78000000000006" y="410.00000000000006" as="targetPoint" />
          </mxGeometry>
        </mxCell>
        <mxCell id="GoVWbZMdBhOil8Ci3U0w-14" value="" style="endArrow=none;html=1;rounded=0;fontSize=12;startSize=8;endSize=8;curved=1;" edge="1" parent="1">
          <mxGeometry width="50" height="50" relative="1" as="geometry">
            <mxPoint x="-40" y="480" as="sourcePoint" />
            <mxPoint x="80" y="480" as="targetPoint" />
          </mxGeometry>
        </mxCell>
        <mxCell id="GoVWbZMdBhOil8Ci3U0w-15" value="" style="endArrow=none;html=1;rounded=0;fontSize=12;startSize=8;endSize=8;curved=1;" edge="1" parent="1">
          <mxGeometry width="50" height="50" relative="1" as="geometry">
            <mxPoint x="-40" y="480" as="sourcePoint" />
            <mxPoint x="-40" y="560" as="targetPoint" />
          </mxGeometry>
        </mxCell>
        <mxCell id="GoVWbZMdBhOil8Ci3U0w-16" value="" style="whiteSpace=wrap;html=1;fontSize=16;" vertex="1" parent="1">
          <mxGeometry x="-100" y="560" width="290" height="440" as="geometry" />
        </mxCell>
        <mxCell id="GoVWbZMdBhOil8Ci3U0w-17" value="Resultat" style="text;html=1;align=center;verticalAlign=middle;resizable=0;points=[];autosize=1;strokeColor=none;fillColor=none;fontSize=16;" vertex="1" parent="1">
          <mxGeometry x="-10" y="560" width="80" height="30" as="geometry" />
        </mxCell>
        <mxCell id="GoVWbZMdBhOil8Ci3U0w-19" value="- crawlTid : double&lt;br&gt;- brystTid : double&lt;br&gt;- butterflyTid : double&lt;br&gt;- rygCrawlTid : double&lt;br&gt;- crawlDato : String&lt;br&gt;- brystDato : String&lt;br&gt;- butterflyDato : String&lt;br&gt;- rygcrawlDato : String" style="text;html=1;align=left;verticalAlign=middle;resizable=0;points=[];autosize=1;strokeColor=none;fillColor=none;fontSize=16;" vertex="1" parent="1">
          <mxGeometry x="-100" y="580" width="180" height="170" as="geometry" />
        </mxCell>
        <mxCell id="GoVWbZMdBhOil8Ci3U0w-21" value="" style="endArrow=none;html=1;rounded=0;fontSize=12;startSize=8;endSize=8;curved=1;exitX=-0.009;exitY=0.086;exitDx=0;exitDy=0;exitPerimeter=0;entryX=0.999;entryY=0.409;entryDx=0;entryDy=0;entryPerimeter=0;" edge="1" parent="1" target="GoVWbZMdBhOil8Ci3U0w-16">
          <mxGeometry width="50" height="50" relative="1" as="geometry">
            <mxPoint x="-103" y="740" as="sourcePoint" />
            <mxPoint x="190" y="740" as="targetPoint" />
          </mxGeometry>
        </mxCell>
        <mxCell id="GoVWbZMdBhOil8Ci3U0w-22" value="+ getCrawlTid() : double&lt;br&gt;+ getBrystTid() : double&lt;br&gt;+ getButterflyTid : double&lt;br&gt;+ getRygCrawlTid() : double&lt;br&gt;+ getCrawlDato() : String&lt;br&gt;+ getBrystDato() : String&lt;br&gt;+ getButterflyDato() : String&lt;br&gt;+ getRygCrawlTid() : String&lt;br&gt;+ getAgeCategory() : String&lt;br&gt;+ getMedlemID() : int&lt;br&gt;+ getResultStringForDiscipline&lt;br&gt;(discipline : String) : String&lt;br&gt;+ toString() : String&lt;br&gt;&amp;nbsp;" style="text;html=1;align=left;verticalAlign=middle;resizable=0;points=[];autosize=1;strokeColor=none;fillColor=none;fontSize=16;" vertex="1" parent="1">
          <mxGeometry x="-100" y="740" width="240" height="280" as="geometry" />
        </mxCell>
        <mxCell id="GoVWbZMdBhOil8Ci3U0w-23" value="" style="rounded=0;whiteSpace=wrap;html=1;fontSize=16;" vertex="1" parent="1">
          <mxGeometry x="280" y="200" width="240" height="110" as="geometry" />
        </mxCell>
        <mxCell id="GoVWbZMdBhOil8Ci3U0w-24" value="Restance" style="text;html=1;align=center;verticalAlign=middle;resizable=0;points=[];autosize=1;strokeColor=none;fillColor=none;fontSize=16;" vertex="1" parent="1">
          <mxGeometry x="355" y="200" width="90" height="30" as="geometry" />
        </mxCell>
        <mxCell id="GoVWbZMdBhOil8Ci3U0w-26" value="&lt;div style=&quot;text-align: left;&quot;&gt;&lt;span style=&quot;font-size: 10px; background-color: initial;&quot;&gt;- name : String&lt;/span&gt;&lt;/div&gt;&lt;font style=&quot;font-size: 10px;&quot;&gt;&lt;div style=&quot;text-align: left;&quot;&gt;&lt;span style=&quot;background-color: initial;&quot;&gt;- medlemID : int&lt;/span&gt;&lt;/div&gt;&lt;/font&gt;" style="text;html=1;align=center;verticalAlign=middle;resizable=0;points=[];autosize=1;strokeColor=none;fillColor=none;fontSize=16;" vertex="1" parent="1">
          <mxGeometry x="280" y="230" width="90" height="40" as="geometry" />
        </mxCell>
        <mxCell id="GoVWbZMdBhOil8Ci3U0w-29" value="&lt;span style=&quot;font-size: 10px;&quot;&gt;+ getName() : String&lt;br&gt;+ getMedlemID() : int&lt;br&gt;&lt;/span&gt;" style="text;html=1;align=left;verticalAlign=middle;resizable=0;points=[];autosize=1;strokeColor=none;fillColor=none;fontSize=16;" vertex="1" parent="1">
          <mxGeometry x="285" y="260" width="120" height="50" as="geometry" />
        </mxCell>
        <mxCell id="GoVWbZMdBhOil8Ci3U0w-31" value="" style="endArrow=none;html=1;rounded=0;fontSize=12;startSize=8;endSize=8;curved=1;" edge="1" parent="1">
          <mxGeometry width="50" height="50" relative="1" as="geometry">
            <mxPoint x="280" y="229.65" as="sourcePoint" />
            <mxPoint x="520" y="229.65" as="targetPoint" />
          </mxGeometry>
        </mxCell>
        <mxCell id="GoVWbZMdBhOil8Ci3U0w-32" value="" style="endArrow=none;html=1;rounded=0;fontSize=12;startSize=8;endSize=8;curved=1;" edge="1" parent="1">
          <mxGeometry width="50" height="50" relative="1" as="geometry">
            <mxPoint x="280" y="269.65" as="sourcePoint" />
            <mxPoint x="520" y="269.65" as="targetPoint" />
          </mxGeometry>
        </mxCell>
        <mxCell id="GoVWbZMdBhOil8Ci3U0w-33" value="" style="endArrow=none;html=1;rounded=0;fontSize=12;startSize=8;endSize=8;curved=1;" edge="1" parent="1">
          <mxGeometry width="50" height="50" relative="1" as="geometry">
            <mxPoint x="160" y="270" as="sourcePoint" />
            <mxPoint x="280" y="270" as="targetPoint" />
          </mxGeometry>
        </mxCell>
        <mxCell id="GoVWbZMdBhOil8Ci3U0w-34" value="" style="rounded=0;whiteSpace=wrap;html=1;fontSize=16;" vertex="1" parent="1">
          <mxGeometry x="80" y="-400" width="400" height="500" as="geometry" />
        </mxCell>
        <mxCell id="GoVWbZMdBhOil8Ci3U0w-35" value="Database" style="text;html=1;align=center;verticalAlign=middle;resizable=0;points=[];autosize=1;strokeColor=none;fillColor=none;fontSize=16;" vertex="1" parent="1">
          <mxGeometry x="235" y="-400" width="90" height="30" as="geometry" />
        </mxCell>
        <mxCell id="GoVWbZMdBhOil8Ci3U0w-37" value="" style="endArrow=none;html=1;rounded=0;fontSize=12;startSize=8;endSize=8;curved=1;" edge="1" parent="1">
          <mxGeometry width="50" height="50" relative="1" as="geometry">
            <mxPoint x="80" y="-370" as="sourcePoint" />
            <mxPoint x="480" y="-370" as="targetPoint" />
          </mxGeometry>
        </mxCell>
        <mxCell id="GoVWbZMdBhOil8Ci3U0w-38" value="&lt;span style=&quot;font-size: 10px;&quot;&gt;+ medlemmere : ArrayList&amp;lt;Medlem&amp;gt;&lt;br&gt;+ konkurrenceSvømmereResultater : ArrayList&amp;lt;Resultat&amp;gt;&lt;br&gt;+ medlemmereIRestance : ArrayList&amp;lt;Restance&amp;gt;&lt;br&gt;&lt;/span&gt;" style="text;html=1;align=left;verticalAlign=middle;resizable=0;points=[];autosize=1;strokeColor=none;fillColor=none;fontSize=16;" vertex="1" parent="1">
          <mxGeometry x="80" y="-380" width="280" height="70" as="geometry" />
        </mxCell>
        <mxCell id="GoVWbZMdBhOil8Ci3U0w-39" value="" style="endArrow=none;html=1;rounded=0;fontSize=12;startSize=8;endSize=8;curved=1;" edge="1" parent="1">
          <mxGeometry width="50" height="50" relative="1" as="geometry">
            <mxPoint x="80" y="-310" as="sourcePoint" />
            <mxPoint x="480" y="-310" as="targetPoint" />
          </mxGeometry>
        </mxCell>
        <mxCell id="GoVWbZMdBhOil8Ci3U0w-40" value="&lt;font style=&quot;font-size: 10px;&quot;&gt;+ findMedlemByID(int medlemID) : String&lt;br&gt;+ addResultat(...) : void&lt;br&gt;+ addMedlem(name : String, age : int, konkurrenceSvømmer : bool, aktiv : bool) : void&lt;br&gt;- generateUniqueMedlemID() : int&lt;br&gt;+ medlemIDExists(medlemID : int) : bool&lt;br&gt;+ gemMedlemmereTilCSV() : void&lt;br&gt;+ gemResultaterTilCSV() : void&lt;br&gt;+ gemRestanceTilCSV() : void&lt;br&gt;+ loadMedlemmereFromCSV : void&lt;br&gt;+ loadResultaterFraCSV() : void&lt;br&gt;+ loadRestanceFraCSV() : void&lt;br&gt;+ findMedlemByName(medlemsNavn : String) : ArrayList&amp;lt;Medlem&amp;gt;&lt;br&gt;+ findResultatObjectByMedlemID(medlemID : int) : ArrayList&amp;lt;Resultat&amp;gt;&lt;br&gt;+ setCrawlTid(nyCrawlTid : double) : void&lt;br&gt;+ setBrystTid(nyBrystTid : double) : void&lt;br&gt;+ setButterflyTid(nyButterflyTid : double) : void&lt;br&gt;+ setRygCrawlTid(nyRygCrawlTid: double) void&lt;br&gt;+ getCrawlTid() : double&lt;br&gt;+ getMedlemmereIRestance() : ArrayList&amp;lt;Restance&amp;gt;&lt;br&gt;+ addMedlemToRestance(name : String, age : int) : void&lt;br&gt;+ removeMedlemFromRestance(medlemID : int) : void&amp;nbsp;&lt;br&gt;&lt;/font&gt;" style="text;html=1;align=left;verticalAlign=middle;resizable=0;points=[];autosize=1;strokeColor=none;fillColor=none;fontSize=16;" vertex="1" parent="1">
          <mxGeometry x="80" y="-320" width="400" height="420" as="geometry" />
        </mxCell>
        <mxCell id="GoVWbZMdBhOil8Ci3U0w-42" value="" style="endArrow=none;html=1;rounded=0;fontSize=12;startSize=8;endSize=8;curved=1;" edge="1" parent="1">
          <mxGeometry width="50" height="50" relative="1" as="geometry">
            <mxPoint x="80" y="200" as="sourcePoint" />
            <mxPoint x="80" y="160" as="targetPoint" />
          </mxGeometry>
        </mxCell>
        <mxCell id="GoVWbZMdBhOil8Ci3U0w-43" value="" style="endArrow=none;html=1;rounded=0;fontSize=12;startSize=8;endSize=8;curved=1;" edge="1" parent="1">
          <mxGeometry width="50" height="50" relative="1" as="geometry">
            <mxPoint x="399.67" y="200" as="sourcePoint" />
            <mxPoint x="399.67" y="160" as="targetPoint" />
          </mxGeometry>
        </mxCell>
        <mxCell id="GoVWbZMdBhOil8Ci3U0w-44" value="" style="endArrow=none;html=1;rounded=0;fontSize=12;startSize=8;endSize=8;curved=1;" edge="1" parent="1">
          <mxGeometry width="50" height="50" relative="1" as="geometry">
            <mxPoint x="80" y="160" as="sourcePoint" />
            <mxPoint x="240" y="160" as="targetPoint" />
          </mxGeometry>
        </mxCell>
        <mxCell id="GoVWbZMdBhOil8Ci3U0w-45" value="" style="endArrow=none;html=1;rounded=0;fontSize=12;startSize=8;endSize=8;curved=1;entryX=0.397;entryY=1.006;entryDx=0;entryDy=0;entryPerimeter=0;" edge="1" parent="1" target="GoVWbZMdBhOil8Ci3U0w-40">
          <mxGeometry width="50" height="50" relative="1" as="geometry">
            <mxPoint x="239" y="160" as="sourcePoint" />
            <mxPoint x="270" y="90" as="targetPoint" />
          </mxGeometry>
        </mxCell>
        <mxCell id="GoVWbZMdBhOil8Ci3U0w-46" value="" style="endArrow=none;html=1;rounded=0;fontSize=12;startSize=8;endSize=8;curved=1;" edge="1" parent="1">
          <mxGeometry width="50" height="50" relative="1" as="geometry">
            <mxPoint x="240" y="160" as="sourcePoint" />
            <mxPoint x="400" y="160" as="targetPoint" />
          </mxGeometry>
        </mxCell>
        <mxCell id="GoVWbZMdBhOil8Ci3U0w-48" value="" style="endArrow=none;html=1;rounded=0;fontSize=12;startSize=8;endSize=8;curved=1;exitX=-0.009;exitY=0.086;exitDx=0;exitDy=0;exitPerimeter=0;" edge="1" parent="1">
          <mxGeometry width="50" height="50" relative="1" as="geometry">
            <mxPoint x="-102" y="589.49" as="sourcePoint" />
            <mxPoint x="190" y="589" as="targetPoint" />
          </mxGeometry>
        </mxCell>
        <mxCell id="GoVWbZMdBhOil8Ci3U0w-49" value="" style="rounded=0;whiteSpace=wrap;html=1;fontSize=16;" vertex="1" parent="1">
          <mxGeometry x="640" y="-400" width="400" height="250" as="geometry" />
        </mxCell>
        <mxCell id="GoVWbZMdBhOil8Ci3U0w-50" value="" style="endArrow=none;html=1;rounded=0;fontSize=12;startSize=8;endSize=8;curved=1;entryX=-0.002;entryY=0.612;entryDx=0;entryDy=0;entryPerimeter=0;" edge="1" parent="1" target="GoVWbZMdBhOil8Ci3U0w-57">
          <mxGeometry width="50" height="50" relative="1" as="geometry">
            <mxPoint x="480" y="-200" as="sourcePoint" />
            <mxPoint x="880" y="-200" as="targetPoint" />
          </mxGeometry>
        </mxCell>
        <mxCell id="GoVWbZMdBhOil8Ci3U0w-52" value="Filehandler" style="text;html=1;align=center;verticalAlign=middle;resizable=0;points=[];autosize=1;strokeColor=none;fillColor=none;fontSize=16;" vertex="1" parent="1">
          <mxGeometry x="790" y="-400" width="100" height="30" as="geometry" />
        </mxCell>
        <mxCell id="GoVWbZMdBhOil8Ci3U0w-54" value="" style="endArrow=none;html=1;rounded=0;fontSize=12;startSize=8;endSize=8;curved=1;" edge="1" parent="1">
          <mxGeometry width="50" height="50" relative="1" as="geometry">
            <mxPoint x="640" y="-370" as="sourcePoint" />
            <mxPoint x="1040" y="-370" as="targetPoint" />
          </mxGeometry>
        </mxCell>
        <mxCell id="GoVWbZMdBhOil8Ci3U0w-55" value="&lt;font style=&quot;font-size: 10px;&quot;&gt;filewriter : Printstream&lt;br&gt;file : File&lt;br&gt;file2 : File&lt;br&gt;file3 : File&lt;br&gt;&lt;/font&gt;" style="text;html=1;align=left;verticalAlign=middle;resizable=0;points=[];autosize=1;strokeColor=none;fillColor=none;fontSize=16;" vertex="1" parent="1">
          <mxGeometry x="650" y="-370" width="120" height="90" as="geometry" />
        </mxCell>
        <mxCell id="GoVWbZMdBhOil8Ci3U0w-56" value="" style="endArrow=none;html=1;rounded=0;fontSize=12;startSize=8;endSize=8;curved=1;" edge="1" parent="1">
          <mxGeometry width="50" height="50" relative="1" as="geometry">
            <mxPoint x="640" y="-280" as="sourcePoint" />
            <mxPoint x="1040" y="-280" as="targetPoint" />
          </mxGeometry>
        </mxCell>
        <mxCell id="GoVWbZMdBhOil8Ci3U0w-57" value="&lt;font style=&quot;font-size: 10px;&quot;&gt;+ gemTilCSV(ArrayList&amp;lt;Medlem&amp;gt;) : void&lt;br&gt;+ gemResultaterTilCSV(ArrayList&amp;lt;Resultat&amp;gt;) : void&lt;br&gt;+ gemRestanceCSV(ArrayList&amp;lt;Restance&amp;gt;) : void&lt;br&gt;+ loadMedlemmereFromCSV() : ArrayList&amp;lt;Medlem&amp;gt;&lt;br&gt;+ loadResultaterFraCSV() : ArrayList&amp;lt;Resultat&amp;gt;&lt;br&gt;+ loadFromRestance() : ArrayList&amp;lt;Restance&amp;gt;&lt;br&gt;&lt;/font&gt;" style="text;html=1;align=left;verticalAlign=middle;resizable=0;points=[];autosize=1;strokeColor=none;fillColor=none;fontSize=16;" vertex="1" parent="1">
          <mxGeometry x="640" y="-280" width="250" height="130" as="geometry" />
        </mxCell>
        <mxCell id="GoVWbZMdBhOil8Ci3U0w-58" value="" style="rounded=0;whiteSpace=wrap;html=1;fontSize=16;" vertex="1" parent="1">
          <mxGeometry x="-440" y="-400" width="290" height="480" as="geometry" />
        </mxCell>
        <mxCell id="GoVWbZMdBhOil8Ci3U0w-59" value="Controller" style="text;html=1;align=center;verticalAlign=middle;resizable=0;points=[];autosize=1;strokeColor=none;fillColor=none;fontSize=16;" vertex="1" parent="1">
          <mxGeometry x="-325" y="-400" width="90" height="30" as="geometry" />
        </mxCell>
        <mxCell id="GoVWbZMdBhOil8Ci3U0w-60" value="" style="endArrow=none;html=1;rounded=0;fontSize=12;startSize=8;endSize=8;curved=1;" edge="1" parent="1">
          <mxGeometry width="50" height="50" relative="1" as="geometry">
            <mxPoint x="-440" y="-370.77" as="sourcePoint" />
            <mxPoint x="-150" y="-371" as="targetPoint" />
          </mxGeometry>
        </mxCell>
        <mxCell id="GoVWbZMdBhOil8Ci3U0w-61" value="&lt;font style=&quot;font-size: 10px;&quot;&gt;- database : Database&lt;br&gt;- kasserer : Kasserer&lt;br&gt;- random : Random&lt;br&gt;&lt;/font&gt;" style="text;html=1;align=left;verticalAlign=middle;resizable=0;points=[];autosize=1;strokeColor=none;fillColor=none;fontSize=16;" vertex="1" parent="1">
          <mxGeometry x="-430" y="-380" width="120" height="70" as="geometry" />
        </mxCell>
        <mxCell id="GoVWbZMdBhOil8Ci3U0w-63" value="" style="endArrow=none;html=1;rounded=0;fontSize=12;startSize=8;endSize=8;curved=1;" edge="1" parent="1">
          <mxGeometry width="50" height="50" relative="1" as="geometry">
            <mxPoint x="-440" y="-310" as="sourcePoint" />
            <mxPoint x="-150" y="-310" as="targetPoint" />
          </mxGeometry>
        </mxCell>
        <mxCell id="GoVWbZMdBhOil8Ci3U0w-64" value="&lt;font style=&quot;font-size: 10px;&quot;&gt;+ udregnIndkomst() : double&lt;br&gt;+ getSingleMedlemKontingent(medlemID : int) : double&lt;br&gt;+ findMedlemByID(medlemID : int) : String&lt;br&gt;+ addMedlem(...) : void&lt;br&gt;- generateUniqueMedlemID() : int&lt;br&gt;- medlemIDExists() : bool&lt;br&gt;+ gemTilCSV() : void&lt;br&gt;+ gemResultaterTilCSV() : void&lt;br&gt;+ gemRestanceCSV() : void&lt;br&gt;+ loadMedlemmereFraCSV() : void&lt;br&gt;+ loadResultatFraCSV() : void&lt;br&gt;+ loadRestanceFraCSV() : void&lt;br&gt;+ findMedlemByName : ArrayList&amp;lt;Medlem&amp;gt;&lt;br&gt;+ findResultatObjectByMedlemID() : ArrayList&amp;lt;Resultat&amp;gt;&lt;br&gt;+ addResultat(...) : void&lt;br&gt;+ addMedlemToRestance(name : String, medlemID : int) : void&lt;br&gt;+ removeMedlemFromRestance(medlemID : int) : void&lt;br&gt;+ getMedlemmere() : ArrayList&amp;lt;Medlem&amp;gt;&lt;br&gt;+ getResultater() : ArrayList&amp;lt;Resultat&amp;gt;&lt;br&gt;+ getMedlemmereIRestance() : ArrayList&amp;lt;Restance&amp;gt;&lt;br&gt;&lt;/font&gt;" style="text;html=1;align=left;verticalAlign=middle;resizable=0;points=[];autosize=1;strokeColor=none;fillColor=none;fontSize=16;" vertex="1" parent="1">
          <mxGeometry x="-430" y="-320" width="300" height="400" as="geometry" />
        </mxCell>
        <mxCell id="GoVWbZMdBhOil8Ci3U0w-65" value="" style="endArrow=none;html=1;rounded=0;fontSize=12;startSize=8;endSize=8;curved=1;exitX=-0.003;exitY=0.475;exitDx=0;exitDy=0;exitPerimeter=0;entryX=0.999;entryY=0.584;entryDx=0;entryDy=0;entryPerimeter=0;" edge="1" parent="1" source="GoVWbZMdBhOil8Ci3U0w-40" target="GoVWbZMdBhOil8Ci3U0w-58">
          <mxGeometry width="50" height="50" relative="1" as="geometry">
            <mxPoint x="-230" y="-120" as="sourcePoint" />
            <mxPoint x="-60" y="-160" as="targetPoint" />
          </mxGeometry>
        </mxCell>
        <mxCell id="GoVWbZMdBhOil8Ci3U0w-66" value="" style="rounded=0;whiteSpace=wrap;html=1;fontSize=16;" vertex="1" parent="1">
          <mxGeometry x="-440" y="200" width="290" height="160" as="geometry" />
        </mxCell>
        <mxCell id="GoVWbZMdBhOil8Ci3U0w-67" value="Kasserer" style="text;html=1;align=center;verticalAlign=middle;resizable=0;points=[];autosize=1;strokeColor=none;fillColor=none;fontSize=16;" vertex="1" parent="1">
          <mxGeometry x="-340" y="200" width="90" height="30" as="geometry" />
        </mxCell>
        <mxCell id="GoVWbZMdBhOil8Ci3U0w-68" value="&lt;font size=&quot;1&quot;&gt;- controller : Controller&lt;/font&gt;" style="text;html=1;align=left;verticalAlign=middle;resizable=0;points=[];autosize=1;strokeColor=none;fillColor=none;fontSize=16;" vertex="1" parent="1">
          <mxGeometry x="-430" y="230" width="120" height="30" as="geometry" />
        </mxCell>
        <mxCell id="GoVWbZMdBhOil8Ci3U0w-69" value="&lt;font size=&quot;1&quot;&gt;+ getSingleMedlemKontingent(medlemID : int) : double&lt;br&gt;+ generateIncomeOverview() : double&lt;br&gt;- udregnUngeIndkomst() : double&lt;br&gt;- udregnSeniorIndkomst() : double&lt;br&gt;- udregnPassivIndkomst() : double&lt;br&gt;&lt;br&gt;&lt;/font&gt;" style="text;html=1;align=left;verticalAlign=middle;resizable=0;points=[];autosize=1;strokeColor=none;fillColor=none;fontSize=16;" vertex="1" parent="1">
          <mxGeometry x="-430" y="250" width="270" height="130" as="geometry" />
        </mxCell>
        <mxCell id="GoVWbZMdBhOil8Ci3U0w-70" value="" style="endArrow=none;html=1;rounded=0;fontSize=12;startSize=8;endSize=8;curved=1;" edge="1" parent="1">
          <mxGeometry width="50" height="50" relative="1" as="geometry">
            <mxPoint x="-440" y="260" as="sourcePoint" />
            <mxPoint x="-150" y="258.95" as="targetPoint" />
          </mxGeometry>
        </mxCell>
        <mxCell id="GoVWbZMdBhOil8Ci3U0w-71" value="" style="endArrow=none;html=1;rounded=0;fontSize=12;startSize=8;endSize=8;curved=1;" edge="1" parent="1">
          <mxGeometry width="50" height="50" relative="1" as="geometry">
            <mxPoint x="-440" y="230" as="sourcePoint" />
            <mxPoint x="-150" y="228.95" as="targetPoint" />
          </mxGeometry>
        </mxCell>
        <mxCell id="GoVWbZMdBhOil8Ci3U0w-72" value="" style="endArrow=none;html=1;rounded=0;fontSize=12;startSize=8;endSize=8;curved=1;exitX=0.671;exitY=0.008;exitDx=0;exitDy=0;exitPerimeter=0;entryX=0.5;entryY=0.999;entryDx=0;entryDy=0;entryPerimeter=0;" edge="1" parent="1" source="GoVWbZMdBhOil8Ci3U0w-67" target="GoVWbZMdBhOil8Ci3U0w-64">
          <mxGeometry width="50" height="50" relative="1" as="geometry">
            <mxPoint x="-230" y="320" as="sourcePoint" />
            <mxPoint x="-293" y="80" as="targetPoint" />
          </mxGeometry>
        </mxCell>
        <mxCell id="GoVWbZMdBhOil8Ci3U0w-73" value="" style="rounded=0;whiteSpace=wrap;html=1;fontSize=16;" vertex="1" parent="1">
          <mxGeometry x="-840" y="-400" width="280" height="600" as="geometry" />
        </mxCell>
        <mxCell id="GoVWbZMdBhOil8Ci3U0w-74" value="Ui" style="text;html=1;align=center;verticalAlign=middle;resizable=0;points=[];autosize=1;strokeColor=none;fillColor=none;fontSize=16;" vertex="1" parent="1">
          <mxGeometry x="-720" y="-400" width="40" height="30" as="geometry" />
        </mxCell>
        <mxCell id="GoVWbZMdBhOil8Ci3U0w-77" value="" style="endArrow=none;html=1;rounded=0;fontSize=12;startSize=8;endSize=8;curved=1;" edge="1" parent="1">
          <mxGeometry width="50" height="50" relative="1" as="geometry">
            <mxPoint x="-840" y="-370.57" as="sourcePoint" />
            <mxPoint x="-560" y="-370.57" as="targetPoint" />
          </mxGeometry>
        </mxCell>
        <mxCell id="GoVWbZMdBhOil8Ci3U0w-79" value="&lt;font size=&quot;1&quot;&gt;- scan : Scanner&lt;br&gt;- controller : Controller&lt;br&gt;&lt;/font&gt;" style="text;html=1;align=left;verticalAlign=middle;resizable=0;points=[];autosize=1;strokeColor=none;fillColor=none;fontSize=16;" vertex="1" parent="1">
          <mxGeometry x="-830" y="-380" width="120" height="50" as="geometry" />
        </mxCell>
        <mxCell id="GoVWbZMdBhOil8Ci3U0w-81" value="" style="endArrow=none;html=1;rounded=0;fontSize=12;startSize=8;endSize=8;curved=1;" edge="1" parent="1">
          <mxGeometry width="50" height="50" relative="1" as="geometry">
            <mxPoint x="-840" y="-330" as="sourcePoint" />
            <mxPoint x="-560" y="-330" as="targetPoint" />
          </mxGeometry>
        </mxCell>
        <mxCell id="GoVWbZMdBhOil8Ci3U0w-82" value="&lt;span style=&quot;font-size: 10px;&quot;&gt;+ startProgram() : void&lt;br&gt;+ startMessage() : void&lt;br&gt;+ startMenu() : void&lt;br&gt;+ administrativ() : void&lt;br&gt;+ trænerMenu() : void&lt;br&gt;+ restanceMenu() : void&lt;br&gt;+ createMedlem() : void&lt;br&gt;+ medlemsOversigt() : void&lt;br&gt;+ getIntegerInput() : int&lt;br&gt;+ getBooleanInput() : bool&lt;br&gt;+ editResultat: void&lt;br&gt;+ listeAfDiscipliner() : void&lt;br&gt;+ visResultater() : void&lt;br&gt;+ top5Swimmers : void&lt;br&gt;+ findTopSwimmers(discipline : String, ageCategory : String)&lt;br&gt;&lt;span style=&quot;white-space: pre;&quot;&gt;&#x9;&lt;/span&gt;: ArrayList&amp;lt;Resultat&lt;br&gt;+ displaySwimmers(swimmers : ArrayList&amp;lt;Resultat&amp;gt;, &lt;br&gt;&lt;span style=&quot;white-space: pre;&quot;&gt;&#x9;&lt;/span&gt;discipline : String) : void&lt;br&gt;+ oversigtRestance : void&lt;br&gt;+ csvLoadAll() : void&lt;br&gt;+ csvSaveAll() : void&lt;br&gt;+ restanceRemoveMedlem() : void&lt;br&gt;+ trænerMenuOversigt() : void&lt;br&gt;+ administrativMenuOversigt() : void&lt;br&gt;+ visKontingentOversigt() : void&lt;br&gt;+ visEnkeltMedlemsKontingentOversigt : void&lt;br&gt;+ restanceMenuOversigt() : void&lt;br&gt;&lt;/span&gt;" style="text;html=1;align=left;verticalAlign=middle;resizable=0;points=[];autosize=1;strokeColor=none;fillColor=none;fontSize=16;labelBackgroundColor=default;" vertex="1" parent="1">
          <mxGeometry x="-830" y="-330" width="290" height="530" as="geometry" />
        </mxCell>
        <mxCell id="GoVWbZMdBhOil8Ci3U0w-83" value="" style="endArrow=none;html=1;rounded=0;fontSize=12;startSize=8;endSize=8;curved=1;exitX=1.008;exitY=0.401;exitDx=0;exitDy=0;exitPerimeter=0;entryX=0;entryY=0.5;entryDx=0;entryDy=0;" edge="1" parent="1" source="GoVWbZMdBhOil8Ci3U0w-73" target="GoVWbZMdBhOil8Ci3U0w-58">
          <mxGeometry width="50" height="50" relative="1" as="geometry">
            <mxPoint x="-510" y="-170" as="sourcePoint" />
            <mxPoint x="-420" y="-250" as="targetPoint" />
          </mxGeometry>
        </mxCell>
        <mxCell id="GoVWbZMdBhOil8Ci3U0w-85" value="" style="rounded=0;whiteSpace=wrap;html=1;fontSize=16;" vertex="1" parent="1">
          <mxGeometry x="-760" y="-560" width="130" height="90" as="geometry" />
        </mxCell>
        <mxCell id="GoVWbZMdBhOil8Ci3U0w-86" value="Main" style="text;html=1;align=center;verticalAlign=middle;resizable=0;points=[];autosize=1;strokeColor=none;fillColor=none;fontSize=16;" vertex="1" parent="1">
          <mxGeometry x="-730" y="-560" width="60" height="30" as="geometry" />
        </mxCell>
        <mxCell id="GoVWbZMdBhOil8Ci3U0w-87" value="" style="endArrow=none;html=1;rounded=0;fontSize=12;startSize=8;endSize=8;curved=1;exitX=0.01;exitY=0.22;exitDx=0;exitDy=0;exitPerimeter=0;entryX=1.007;entryY=0.224;entryDx=0;entryDy=0;entryPerimeter=0;" edge="1" parent="1">
          <mxGeometry width="50" height="50" relative="1" as="geometry">
            <mxPoint x="-759.64" y="-530.36" as="sourcePoint" />
            <mxPoint x="-640.0000000000001" y="-530.0000000000001" as="targetPoint" />
          </mxGeometry>
        </mxCell>
        <mxCell id="GoVWbZMdBhOil8Ci3U0w-88" value="&lt;font style=&quot;font-size: 10px;&quot;&gt;+ main(args : String[]) : void&lt;/font&gt;" style="text;html=1;align=left;verticalAlign=middle;resizable=0;points=[];autosize=1;strokeColor=none;fillColor=none;fontSize=16;" vertex="1" parent="1">
          <mxGeometry x="-760" y="-530" width="150" height="30" as="geometry" />
        </mxCell>
        <mxCell id="GoVWbZMdBhOil8Ci3U0w-89" value="" style="endArrow=none;html=1;rounded=0;fontSize=12;startSize=8;endSize=8;curved=1;exitX=1.011;exitY=-0.018;exitDx=0;exitDy=0;exitPerimeter=0;" edge="1" parent="1" source="GoVWbZMdBhOil8Ci3U0w-74">
          <mxGeometry width="50" height="50" relative="1" as="geometry">
            <mxPoint x="-650" y="-450" as="sourcePoint" />
            <mxPoint x="-680" y="-470" as="targetPoint" />
          </mxGeometry>
        </mxCell>
      </root>
    </mxGraphModel>
  </diagram>
</mxfile>
